<?xml version="1.0" encoding="utf-8"?>
<!-- Generator: Adobe Illustrator 22.1.0, SVG Export Plug-In . SVG Version: 6.00 Build 0)  -->
<svg version="1.1" id="Layer_1" xmlns="http://www.w3.org/2000/svg" xmlns:xlink="http://www.w3.org/1999/xlink" x="0px" y="0px"
	 viewBox="0 0 600 600" style="enable-background:new 0 0 600 600;" xml:space="preserve">
<style type="text/css">
	.st0{fill:#6E8293;}
</style>
<path class="st0" d="M468.8,586.1H131.6c-29.4,0-53.2-23.9-53.2-53.2V67.2c0-29.4,23.9-53.2,53.2-53.2h337.1
	c29.4,0,53.2,23.9,53.2,53.2v465.7C522,562.2,498.1,586.1,468.8,586.1z M131.6,63.7c-1.9,0-3.6,1.7-3.6,3.5v465.7
	c0,1.9,1.7,3.6,3.6,3.6h337.1c1.9,0,3.5-1.7,3.5-3.6V67.2c0-1.9-1.7-3.5-3.5-3.5H131.6z"/>
<rect x="184.1" y="127" class="st0" width="235.5" height="49.7"/>
<rect x="184.1" y="225.9" class="st0" width="235.5" height="49.7"/>
<rect x="184.1" y="324.8" transform="matrix(0.9999 -1.227757e-02 1.227757e-02 0.9999 -4.2729 3.2746)" class="st0" width="161" height="49.7"/>
</svg>
