<svg version="1.1" xmlns="http://www.w3.org/2000/svg" xmlns:xlink="http://www.w3.org/1999/xlink" preserveAspectRatio="xMidYMid meet" viewBox="0 0 449 602" width="449" height="602"><defs><path d="M208.43 64.67C208.43 64.67 13.97 346.06 13.97 346.06C9.17 353.1 10.88 362.7 17.92 367.5C24.96 372.3 34.56 370.59 39.36 363.55C58.79 335.41 214.27 110.3 233.71 82.17C251.73 55.93 277.23 38.65 305.49 33.31C331.41 28.51 357.12 34.17 379.73 49.74C429.97 84.19 424.75 156.19 390.61 205.9C369.54 236.37 200.92 480.17 179.84 510.65C139.63 569.31 102.83 583.5 56.96 558.11C56.32 557.69 56.11 557.47 55.57 557.05C40.53 542.86 32.85 526.97 32.85 507.98C32.85 482.59 46.4 451.66 74.03 411.55C74.03 411.55 265.71 131.87 265.71 131.87C280.21 110.75 294.61 98.59 308.59 96.03C318.83 94.11 329.6 97.21 341.65 105.42C373.44 127.18 349.33 172.51 332.16 197.58C315.3 222.17 180.38 418.86 163.52 443.45C158.72 450.49 160.53 460.09 167.57 464.89C174.61 469.69 184.21 467.87 189.01 460.83C205.88 436.23 340.79 239.46 357.65 214.86C397.33 156.94 397.97 106.49 359.15 79.93C340.27 67.02 321.39 62.22 302.93 65.74C280.43 69.9 259.95 85.9 240.32 114.38C221.15 142.35 67.81 366.09 48.64 394.06C9.92 450.27 -26.77 522.27 34.77 579.87C35.09 580.19 35.52 580.51 35.95 580.83C36.28 581.09 38.92 583.14 39.25 583.39C39.79 583.82 40.43 584.25 41.07 584.57C101.97 618.7 155.73 600.25 205.12 528.03C226.21 497.56 394.91 253.76 416 223.29C458.67 160.99 463.36 69.58 397.23 24.14C368.11 4.3 333.55 -3.27 299.95 3.02C263.57 9.85 231.04 31.71 208.43 64.67Z" id="dpe2Ny2LU"></path></defs><g><g><g><use xlink:href="#dpe2Ny2LU" opacity="1" fill="#b2c0cc" fill-opacity="1"></use><g><use xlink:href="#dpe2Ny2LU" opacity="1" fill-opacity="0" stroke="#000000" stroke-width="0" stroke-opacity="0"></use></g></g></g></g></svg>