<?xml version="1.0" encoding="utf-8"?>
<!-- Generator: Adobe Illustrator 22.1.0, SVG Export Plug-In . SVG Version: 6.00 Build 0)  -->
<svg version="1.1" id="Layer_1" xmlns="http://www.w3.org/2000/svg" xmlns:xlink="http://www.w3.org/1999/xlink" x="0px" y="0px"
	 viewBox="0 0 600 600" style="enable-background:new 0 0 600 600;" xml:space="preserve">
<style type="text/css">
	.st0{fill:#5F768A;}
</style>
<g>
	<g>
		<g>
			<path class="st0" d="M533.3,231c0-53.9,0-93.2,0-93.2c0,0-27.9,0-70,0v23.2c0,12.9-10.4,23.4-23.3,23.4
				c-12.9,0-23.3-10.5-23.3-23.4v-23.2c-71.3,0-162.1,0-233.3,0v23.3c0,12.9-10.4,23.4-23.3,23.4c-12.9,0-23.3-10.5-23.3-23.4v-23.3
				c-42.1,0-69.9,0-69.9,0c0,0,0,39.4-0.1,93.3H533.3z M533.3,277.7H66.7c0,114.1,0,256.6,0,256.6c0,0.1,466.6,0.1,466.6,0.1
				C533.3,534.3,533.3,391.8,533.3,277.7z M463.3,91h69.9c25.8,0,46.8,20.9,46.8,46.8v396.5c0,25.8-20.9,46.8-46.8,46.8H66.8
				C40.9,581,20,560.1,20,534.2V137.8C20,111.9,40.9,91,66.8,91h69.9V44.4C136.7,31.5,147,21,160,21c12.9,0,23.3,10.5,23.3,23.4V91
				h233.3V44.4C416.7,31.5,427,21,440,21c12.9,0,23.3,10.5,23.3,23.4V91z"/>
		</g>
	</g>
</g>
</svg>
