<?xml version="1.0" encoding="utf-8"?>
<!-- Generator: Adobe Illustrator 22.1.0, SVG Export Plug-In . SVG Version: 6.00 Build 0)  -->
<svg version="1.1" id="Layer_1" xmlns="http://www.w3.org/2000/svg" xmlns:xlink="http://www.w3.org/1999/xlink" x="0px" y="0px"
	 viewBox="0 0 100 94" style="enable-background:new 0 0 100 94;" xml:space="preserve">
<style type="text/css">
	.st0{fill:#B1C0CC;}
</style>
<g>
	<path class="st0" d="M33.4,33c0-4.8-3.9-8.7-8.7-8.7c-5,0-8.8,3.8-8.8,8.7c0,4.9,4,8.8,8.8,8.8C29.5,41.9,33.4,38,33.4,33z
		 M24.6,38.3c-2.8,0-5.2-2.4-5.2-5.2c0-2.8,2.4-5.1,5.2-5.1c2.9,0,5.1,2.2,5.1,5.1C29.7,35.9,27.5,38.3,24.6,38.3z"/>
	<path class="st0" d="M72.3,39.9V21.2c0-2.2-1.8-4-4-4H11.9c-2.2,0-4,1.8-4,4v44.9c0,2.2,1.8,4,4,4h38.7
		c3.4,7.5,10.9,12.8,19.7,12.8c11.9,0,21.5-9.7,21.5-21.5C91.7,50.1,83.2,40.9,72.3,39.9z M11.9,21.2h56.4v18.7
		c-2.6,0.2-5,0.9-7.3,2l-5.6-4.9c-0.8-0.7-1.9-0.7-2.7,0L35.7,52.5l-7.4-7.2c-0.7-0.7-1.8-0.7-2.5-0.2L11.9,55V21.2z M49.2,66.1
		H11.9v-6.2l14.8-10.5l7.6,7.3c0.8,0.7,2,0.8,2.7,0l17.1-15.7l3.3,2.9c-5.3,3.9-8.8,10.2-8.8,17.3C48.6,62.9,48.8,64.5,49.2,66.1z
		 M70.2,78.9c-9.7,0-17.5-7.9-17.5-17.5c0-9.7,7.9-17.5,17.5-17.5s17.5,7.9,17.5,17.5C87.7,71,79.9,78.9,70.2,78.9z"/>
	<path class="st0" d="M71.6,49.6c-0.2-0.2-0.4-0.4-0.6-0.4c-0.6-0.2-1.2-0.2-1.6,0c-0.2,0-0.4,0.2-0.6,0.4l-10.1,9.8
		c-0.8,0.8-0.8,2,0,2.8c0.4,0.4,0.8,0.6,1.4,0.6c0.4,0,1-0.2,1.4-0.6l6.6-6.4v16c0,1,0.8,2,2.1,2c1.2,0,2.1-1,2.1-2v-16l6.6,6.4
		c0.8,0.8,2.1,0.8,2.9,0c0.8-0.8,0.8-2,0-2.8L71.6,49.6z"/>
</g>
</svg>
