<svg version="1.1" id="Layer_1" xmlns="http://www.w3.org/2000/svg" xmlns:xlink="http://www.w3.org/1999/xlink" x="0px" y="0px" viewBox="0 0 600 600" style="enable-background:new 0 0 600 600;" xml:space="preserve"><style type="text/css">.st0{fill:%233D88F3;stroke:%233D88F3;stroke-width:8.8185;stroke-miterlimit:10;}</style><g><path class="st0" d="M344.1,16.9c-133.4,0-241.9,108.5-241.9,241.9c0,62.1,23.7,118.6,62.3,161.5l-145.9,140c-5.4,5.2-5.6,13.8-0.4,19.2c2.7,2.8,6.2,4.2,9.8,4.2c3.4,0,6.8-1.3,9.4-3.8l146.3-140.4c42.7,38,98.8,61.3,160.4,61.3c133.4,0,241.9-108.5,241.9-241.9C586,125.4,477.5,16.9,344.1,16.9zM344.1,473.7c-118.4,0-214.8-96.4-214.8-214.8C129.3,140.4,225.6,44,344.1,44c118.5,0,214.8,96.4,214.8,214.8C558.9,377.3,462.5,473.7,344.1,473.7z"/><path class="st0" d="M514,204.4c-0.5-1.4-51.6-140-219.6-113.8c-7.4,1.1-12.5,8.1-11.3,15.5c1.1,7.4,8.2,12.6,15.5,11.3c145.6-22.5,188.1,91.1,189.9,96c2,5.5,7.2,9,12.8,9c1.5,0,3-0.2,4.5-0.8C512.8,219.1,516.5,211.4,514,204.4z"/></g></svg>