<?xml version="1.0" encoding="utf-8"?>
<!-- Generator: Adobe Illustrator 22.1.0, SVG Export Plug-In . SVG Version: 6.00 Build 0)  -->
<svg version="1.1" id="Layer_1" xmlns="http://www.w3.org/2000/svg" xmlns:xlink="http://www.w3.org/1999/xlink" x="0px" y="0px"
	 viewBox="0 0 600 600" style="enable-background:new 0 0 600 600;" xml:space="preserve">
<style type="text/css">
	.st0{opacity:0.4;fill:#3D88F3;}
	.st1{fill:#3D88F3;}
	.st2{fill:#FFFFFF;}
</style>
<circle class="st0" cx="300" cy="300.6" r="268"/>
<path class="st1" d="M461.3,138.4c-5.8-5.8-14.5-8.7-25.9-8.7c-31.9,0-82.6,23.3-101.6,42.3L222.2,283.7l-85.8-1.9
	c-2.4,0-4.7,0.9-6.4,2.6l-20.4,20.3c-1.6,1.6-2.6,3.9-2.6,6.2c0,2.3,0.9,4.6,2.6,6.2l39.6,39.6L124.8,381c-1.6,1.6-2.6,3.9-2.6,6.2
	c0,2.3,0.9,4.6,2.6,6.2l81.5,81.4c3.4,3.4,9,3.4,12.4,0l24.3-24.3l39.6,39.6c1.7,1.7,4,2.6,6.2,2.6c2.2,0,4.5-0.8,6.2-2.6l20.4-20.3
	c1.7-1.7,2.6-4,2.6-6.4l-1.9-85.8l111.6-111.6c12-12,25.9-36.8,34.4-61.8C469.7,182.1,475.7,152.8,461.3,138.4z M445.5,198.4
	c-7.5,21.9-20.3,45.1-30.2,55.1L301,367.7c-1.7,1.7-2.6,4-2.6,6.4l1.9,85.8l-11.5,11.5l-39.6-39.6c-1.7-1.7-4-2.6-6.2-2.6
	c-2.2,0-4.5,0.9-6.2,2.6l-24.3,24.3l-69-69l24.3-24.3c1.6-1.6,2.6-3.9,2.6-6.2c0-2.3-0.9-4.6-2.6-6.2l-39.6-39.5l11.5-11.5l85.8,1.9
	c2.4,0.2,4.7-0.9,6.4-2.6l114.3-114.2c16.2-16.2,62.4-37.2,89.2-37.2c6.4,0,11.2,1.3,13.5,3.6C453.7,155.7,454.5,172.2,445.5,198.4z
	"/>
<path class="st2" d="M254,333.2l-51.7,51.7c-3.4,3.4-3.4,9,0,12.4c3.4,3.4,9,3.4,12.4,0l51.7-51.7c3.4-3.4,3.4-9,0-12.4
	C263,329.8,257.4,329.8,254,333.2z"/>
<path class="st2" d="M374.1,205.3c-5.6,5.6-5.6,14.7,0,20.4c5.6,5.6,14.7,5.6,20.4,0c5.6-5.6,5.6-14.7,0-20.4
	C388.8,199.7,379.7,199.7,374.1,205.3z"/>
<path class="st2" d="M340,239.4c-5.6,5.6-5.6,14.7,0,20.3c5.6,5.6,14.8,5.6,20.4,0c5.6-5.6,5.6-14.7,0-20.3
	C354.8,233.7,345.6,233.7,340,239.4z"/>
<path class="st2" d="M305.9,273.4c-5.6,5.6-5.6,14.7,0,20.3c5.6,5.6,14.7,5.6,20.4,0c5.6-5.6,5.6-14.7,0-20.4
	C320.6,267.8,311.5,267.8,305.9,273.4z"/>
<path class="st2" d="M145.1,454.6c-3.4-3.4-9-3.4-12.4,0l-39.1,39.1c-3.4,3.4-3.4,9,0,12.4c3.4,3.4,9,3.4,12.4,0l39.1-39.1
	C148.5,463.5,148.5,458,145.1,454.6z"/>
<path class="st2" d="M160.2,482L121,521.1c-3.4,3.4-3.4,9,0,12.4c3.4,3.4,9,3.4,12.4,0l39.1-39.1c3.4-3.4,3.4-9,0-12.4
	C169.1,478.6,163.6,478.6,160.2,482z"/>
<path class="st2" d="M117.6,427.1c-3.4-3.4-9-3.4-12.4,0l-39.1,39.1c-3.4,3.4-3.4,9,0,12.4c3.4,3.4,9,3.4,12.4,0l39.1-39.1
	C121.1,436.1,121.1,430.5,117.6,427.1z"/>
</svg>
