<svg version="1.1" xmlns="http://www.w3.org/2000/svg" xmlns:xlink="http://www.w3.org/1999/xlink" preserveAspectRatio="xMidYMid meet" viewBox="0 0 554 483" width="554" height="483"><defs><path d="M25.68 1.24L26.36 1.29L27.04 1.35L27.73 1.44L28.41 1.54L29.1 1.67L29.78 1.82L30.47 1.99L31.15 2.18L31.83 2.4L32.52 2.63L539.93 193.99L540.52 194.25L541.11 194.53L541.68 194.82L542.25 195.14L542.8 195.47L543.34 195.81L543.87 196.17L544.39 196.55L544.9 196.94L545.4 197.35L545.88 197.77L546.35 198.21L546.8 198.65L547.25 199.12L547.68 199.59L548.09 200.08L548.49 200.57L548.88 201.08L549.25 201.6L549.61 202.13L549.96 202.67L550.28 203.22L550.6 203.77L550.89 204.34L551.17 204.91L551.44 205.49L551.69 206.08L551.92 206.67L552.13 207.27L552.33 207.88L552.51 208.49L552.67 209.11L552.81 209.73L552.94 210.35L553.04 210.98L553.13 211.61L553.2 212.25L553.25 212.88L553.28 213.52L553.29 214.16L553.32 214.84L553.32 215.51L553.3 216.18L553.26 216.85L553.2 217.51L553.12 218.17L553.01 218.82L552.88 219.47L552.73 220.11L552.57 220.75L552.38 221.38L552.17 222L551.94 222.62L551.7 223.23L551.43 223.84L551.15 224.43L550.85 225.02L550.53 225.6L550.2 226.18L549.85 226.74L549.48 227.29L549.1 227.84L548.7 228.37L548.29 228.9L547.86 229.41L547.42 229.91L546.97 230.4L546.5 230.88L546.02 231.35L545.52 231.81L545.01 232.25L544.5 232.68L543.97 233.1L543.43 233.51L542.88 233.9L542.31 234.28L541.74 234.64L541.16 234.99L540.57 235.32L539.97 235.64L33.27 479.39L32.6 479.69L31.92 479.98L31.24 480.24L30.56 480.48L29.87 480.7L29.19 480.9L28.51 481.08L27.82 481.24L27.14 481.37L26.46 481.49L25.78 481.58L25.1 481.66L24.42 481.71L23.75 481.74L23.07 481.75L22.41 481.75L21.74 481.72L21.08 481.67L20.42 481.6L19.77 481.52L19.12 481.41L18.48 481.29L17.84 481.14L17.21 480.98L16.58 480.8L15.97 480.6L15.36 480.38L14.75 480.14L14.16 479.89L13.57 479.61L12.99 479.32L12.42 479.01L11.85 478.68L11.3 478.34L10.76 477.97L10.23 477.59L9.71 477.2L9.2 476.78L8.7 476.35L8.21 475.9L7.7 475.4L7.2 474.89L6.72 474.37L6.27 473.84L5.83 473.3L5.41 472.75L5.01 472.19L4.63 471.62L4.27 471.05L3.93 470.47L3.6 469.88L3.3 469.28L3.02 468.68L2.76 468.07L2.51 467.45L2.29 466.83L2.09 466.21L1.91 465.57L1.75 464.94L1.61 464.3L1.49 463.65L1.4 463L1.32 462.35L1.26 461.69L1.23 461.04L1.22 460.38L1.23 459.71L1.26 459.05L1.32 458.38L1.39 457.71L1.49 457.05L1.61 456.38L1.76 455.71L1.92 455.04L2.11 454.37L2.32 453.71L2.56 453.04L2.82 452.38L3.1 451.71L3.4 451.05L95.25 237.82L2.79 33.98L2.51 33.39L2.26 32.79L2.03 32.18L1.82 31.56L1.63 30.94L1.46 30.32L1.3 29.68L1.17 29.04L1.06 28.4L0.97 27.75L0.89 27.1L0.84 26.45L0.81 25.79L0.79 25.13L0.8 24.47L0.83 23.8L0.88 23.14L0.94 22.48L1.03 21.81L1.14 21.15L1.26 20.48L1.41 19.82L1.58 19.16L1.76 18.5L1.97 17.85L2.2 17.2L2.44 16.55L2.71 15.91L3 15.27L3.3 14.64L3.63 14.02L3.98 13.4L4.35 12.78L4.73 12.18L5.14 11.58L5.57 10.99L6.01 10.41L6.48 9.84L6.97 9.28L7.48 8.73L7.96 8.23L8.46 7.75L8.97 7.28L9.48 6.83L10.01 6.4L10.55 5.98L11.1 5.58L11.66 5.19L12.23 4.82L12.81 4.47L13.39 4.13L13.99 3.82L14.59 3.52L15.2 3.23L15.81 2.97L16.44 2.72L17.07 2.49L17.7 2.28L18.34 2.09L18.99 1.92L19.64 1.76L20.3 1.62L20.96 1.51L21.62 1.41L22.29 1.33L22.96 1.27L23.64 1.24L24.32 1.22L24.99 1.22L25.68 1.24ZM249.59 213.97L250.5 213.89L251.4 213.86L252.3 213.87L253.18 213.92L254.05 214L254.91 214.12L255.76 214.28L256.6 214.47L257.42 214.7L258.22 214.96L259.02 215.25L259.79 215.58L260.55 215.94L261.29 216.33L262.02 216.76L262.72 217.21L263.41 217.69L264.07 218.2L264.71 218.74L265.33 219.3L265.93 219.89L266.51 220.51L267.06 221.15L267.58 221.82L268.08 222.51L268.55 223.22L269 223.95L269.42 224.71L269.8 225.49L270.16 226.28L270.49 227.1L270.79 227.93L271.05 228.78L271.29 229.65L271.49 230.54L271.65 231.44L271.78 232.35L271.88 233.28L271.94 234.22L271.96 235.18L271.99 236.09L271.97 237L271.92 237.9L271.83 238.79L271.7 239.67L271.54 240.54L271.34 241.4L271.11 242.25L270.84 243.09L270.54 243.92L270.2 244.73L269.84 245.52L269.44 246.31L269.01 247.07L268.55 247.82L268.06 248.55L267.55 249.26L267 249.96L266.43 250.63L265.84 251.28L265.22 251.91L264.57 252.52L263.9 253.1L263.21 253.66L262.5 254.2L261.76 254.71L261.01 255.19L260.23 255.65L259.44 256.08L258.62 256.48L257.79 256.85L256.94 257.19L256.08 257.49L255.2 257.77L254.31 258.01L253.4 258.22L252.48 258.4L251.54 258.54L250.6 258.64L249.64 258.71L132.48 264.75L68.28 413.65L473.34 218.31L67.81 64.78L137.82 218.51L249.59 213.97Z" id="d7wcIHsKT"></path></defs><g><g><g><use xlink:href="#d7wcIHsKT" opacity="1" fill="#3d88f3" fill-opacity="1"></use><g><use xlink:href="#d7wcIHsKT" opacity="1" fill-opacity="0" stroke="#000000" stroke-width="1" stroke-opacity="0"></use></g></g></g></g></svg>