<svg xmlns="http://www.w3.org/2000/svg" viewBox="0 0 370.26 104.99"><defs><style>.cls-1{fill:#4196d4;}.cls-2{fill:#1d3e55;}</style></defs><title>Asset 31@2x-10</title><g id="Layer_2" data-name="Layer 2"><g id="Layer_11" data-name="Layer 11"><path class="cls-1" d="M63.43,81.37a2.07,2.07,0,0,1,.5,1.3c0,.38.11,9.26-7.86,13.08a18.44,18.44,0,0,1-7.48,1.36L42.21,105c3.68,0,8.63,0,10.42-.23a25,25,0,0,0,9.5-3.31A26,26,0,0,0,67.73,97a21.63,21.63,0,0,0,4.42-6.43,24.18,24.18,0,0,0,1-3.25A61.5,61.5,0,0,0,74.24,75H58Z"/><path class="cls-1" d="M58.88,70.64l24.43,0c7.92,0,12-2.8,15.13-6.33l-36-.06Z"/><path class="cls-1" d="M37.07,56.65a2.08,2.08,0,0,1,2.24,1.88c0,.49,1.24,12.08,12,12.08H52.6l6.71-11.39H74.38V24.69c0-10.87-5.33-16.32-5.55-16.55L68.67,8A21.05,21.05,0,0,0,58.45,1c-3.34-1-6.42-1-10-1H31.18a12.58,12.58,0,0,1,3.25,9,2.07,2.07,0,1,1-4.14,0,8.47,8.47,0,0,0-2.41-6.5C24.92-.27,20.05,0,20,0H3.08A3.31,3.31,0,0,0,.87.73,3.65,3.65,0,0,0,0,3.45V47.22c0,.22-.45,9.62,5.84,15.92.1.1,7.3,7.47,16.1,7.47H40.61a19.46,19.46,0,0,1-5.42-11.71A2.07,2.07,0,0,1,37.07,56.65ZM60.33,42.19l-13.12-6C51.66,27.47,63.05,32.84,60.33,42.19Z"/><path class="cls-2" d="M150.9,23q-5-5.07-16.33-5.07H117.63a1.55,1.55,0,0,0-1.2.49,1.87,1.87,0,0,0-.45,1.31V68.76a1.76,1.76,0,0,0,.45,1.24,1.55,1.55,0,0,0,1.2.49h17.31q7.57,0,12.14-2.18a13.76,13.76,0,0,0,6.71-6.65,28.48,28.48,0,0,0,2.29-11.61q.07-2.25.07-5.93t-.07-5.86Q155.92,28,150.9,23Zm-1.95,26.78a22.81,22.81,0,0,1-1.54,8.45,8.93,8.93,0,0,1-4.5,4.58,19.86,19.86,0,0,1-8.35,1.46H123V24.06h11.16q7.79,0,11.2,3.49t3.56,11q.15,4.36.15,5.56T148.95,49.75Z"/><path class="cls-2" d="M178.37,31.47q-7.38,0-11.8,4.63t-4.85,12.45l-.07,2.39.07,2.46q.43,8,4.85,12.56t11.8,4.6a19.65,19.65,0,0,0,8.21-1.63A16,16,0,0,0,192.12,65q2-2.24,2-3.84a1.14,1.14,0,0,0-.47-.94,1.79,1.79,0,0,0-1.12-.36h-3.18a3,3,0,0,0-1.23.18,3.77,3.77,0,0,0-1,1,11.8,11.8,0,0,1-3.22,2.79,10.28,10.28,0,0,1-5.54,1.34,8.65,8.65,0,0,1-7.09-3.33,13.44,13.44,0,0,1-2.9-8v-.65h25.11a1.61,1.61,0,0,0,1.66-1.66v-1.3q0-8.68-4.38-13.75T178.37,31.47ZM188.5,48.33H168.31v-.22A12.39,12.39,0,0,1,171,39.86a9.13,9.13,0,0,1,7.38-3.18,9.26,9.26,0,0,1,7.38,3.18,12.18,12.18,0,0,1,2.75,8.25Z"/><path class="cls-2" d="M217.55,48.54a42.75,42.75,0,0,1-6.66-1.85,7.15,7.15,0,0,1-3-2,4.13,4.13,0,0,1-.8-2.57,4.77,4.77,0,0,1,1.88-3.94,8.61,8.61,0,0,1,5.43-1.48,13.23,13.23,0,0,1,4,.54,6.93,6.93,0,0,1,2.42,1.3,16.74,16.74,0,0,1,2.06,2.14,1.74,1.74,0,0,0,1.45.8H227a1.6,1.6,0,0,0,1.12-.43,1.42,1.42,0,0,0,.47-1.09A6,6,0,0,0,227,36.6a13.47,13.47,0,0,0-4.85-3.55,18.12,18.12,0,0,0-7.78-1.52,16.74,16.74,0,0,0-7.49,1.56,11.45,11.45,0,0,0-4.74,4.05,9.5,9.5,0,0,0-1.59,5.17A9.11,9.11,0,0,0,203.14,49q2.61,2.6,8.9,4a56.7,56.7,0,0,1,7,1.88,8.78,8.78,0,0,1,3.37,2,4.08,4.08,0,0,1,1,2.9,4.64,4.64,0,0,1-2.35,4.2,9.71,9.71,0,0,1-5.66,1.45,8.81,8.81,0,0,1-5.24-1.4,13.55,13.55,0,0,1-3.61-3.27,3.18,3.18,0,0,0-.69-.65,1.4,1.4,0,0,0-.69-.14h-3a1.73,1.73,0,0,0-1.09.4,1.34,1.34,0,0,0-.51,1.12,6.2,6.2,0,0,0,1.67,3.47,14.38,14.38,0,0,0,5,3.88,15.49,15.49,0,0,0,7.54,1.8,20.26,20.26,0,0,0,8.36-1.45,11.65,11.65,0,0,0,5.28-4,9.62,9.62,0,0,0,1.77-5.65,9,9,0,0,0-2.86-6.88Q224.42,50,217.55,48.54Z"/><path class="cls-2" d="M247.34,48.67l16.09-13.09a2.08,2.08,0,0,0,.84-1.45,1.6,1.6,0,0,0-.42-1.18,1.5,1.5,0,0,0-1.11-.42h-3.81a3.41,3.41,0,0,0-1.45.23,13.66,13.66,0,0,0-1.6,1.07l-13.5,11V19.65a1.7,1.7,0,0,0-1.75-1.75h-3.28a1.78,1.78,0,0,0-1.26.46,1.67,1.67,0,0,0-.5,1.3V68.86a1.7,1.7,0,0,0,1.75,1.75h3.28a1.7,1.7,0,0,0,1.75-1.75V53l17.22,16.3A6.41,6.41,0,0,0,261,70.38a4.23,4.23,0,0,0,1.64.23h3.73a1.43,1.43,0,0,0,1.1-.46,1.63,1.63,0,0,0,.42-1.14,2.3,2.3,0,0,0-.84-1.45Z"/><path class="cls-2" d="M370.12,48q-.29-7.45-4.67-11.94t-12.2-4.49q-7.82,0-12.2,4.49T336.39,48l-.07,3.11.07,3.11q.29,7.46,4.6,11.94t12.27,4.49q8,0,12.27-4.49t4.6-11.94q.14-1.59.14-3.11T370.12,48Zm-6.59,5.86q-.22,5.5-2.93,8.43a10.67,10.67,0,0,1-14.69,0q-2.71-2.93-2.93-8.43l-.07-2.75.07-2.75q.22-5.5,2.93-8.43a10.67,10.67,0,0,1,14.69,0q2.71,2.93,2.93,8.43.07.72.07,2.75T363.53,53.82Z"/><path class="cls-2" d="M332.88,31.69c-1.21,0-2.43,0-3.77,0a14.37,14.37,0,0,0-10.45,4h0V33.25a.7.7,0,0,0-.75-.75h-5a.67.67,0,0,0-.69.73v36.6a.7.7,0,0,0,.73.74H318a.67.67,0,0,0,.69-.75V48.11c.15-3.67,1.17-6.6,3.1-8.43s3.9-2,7.35-2l3.78,0a.49.49,0,0,0,.55-.49v-5A.5.5,0,0,0,332.88,31.69ZM318.65,48.21v-.1h0Z"/><path class="cls-2" d="M301.83,36.15q-4.38-4.49-12.2-4.49A14.23,14.23,0,0,0,279.17,36V33.24a.7.7,0,0,0-.75-.75h-5a.67.67,0,0,0-.69.73V83.18a.7.7,0,0,0,.73.74h5.05a.67.67,0,0,0,.69-.75V66.55a13.36,13.36,0,0,0,10.46,4.2q8,0,12.27-4.49t4.6-11.94q.14-1.59.14-3.11t-.14-3.11Q306.21,40.64,301.83,36.15ZM299.91,54q-.22,5.5-2.93,8.43a10.67,10.67,0,0,1-14.69,0q-2.71-2.93-2.93-8.43l-.07-2.75.07-2.75q.22-5.5,2.93-8.43A10.67,10.67,0,0,1,297,40q2.71,2.93,2.93,8.43.07.72.07,2.75T299.91,54Z"/></g></g></svg>