<?xml version="1.0" encoding="utf-8"?>
<!-- Generator: Adobe Illustrator 27.6.1, SVG Export Plug-In . SVG Version: 6.00 Build 0)  -->
<svg version="1.1" id="Layer_1" xmlns="http://www.w3.org/2000/svg" xmlns:xlink="http://www.w3.org/1999/xlink" x="0px" y="0px"
	 viewBox="0 0 450 448" style="enable-background:new 0 0 450 448;" xml:space="preserve">
<style type="text/css">
	.st0{fill:#090C2F;}
</style>
<path class="st0" d="M154.6,205.1v-70.5h50c13.8,0,26.2,2.1,37.3,6.3c11.1,4.2,20.6,10.3,28.6,18.3c7.9,7.7,14,17.1,18.3,28.2
	c2.3,5.6,4,11.5,5.1,17.7l43.9,0.1c-1.4-12.6-4.4-24.3-8.9-35.2c-6.6-16.4-16-30.4-28.2-42.1c-12.2-11.9-26.7-21-43.7-27.4
	c-16.9-6.3-35.7-9.5-56.4-9.5l-89.1,0.1v114.2L154.6,205.1z"/>
<path class="st0" d="M293.9,242.7c-1.1,6.4-2.8,12.4-5.1,18.1c-4.2,10.8-10.3,20.2-18.3,28.2c-7.9,7.7-17.5,13.6-28.6,17.8
	c-11.1,4.2-23.5,6.3-37.3,6.3h-50v-70.5l-43,0.1v114.2l89.2-0.1c20.6,0,39.4-3.2,56.4-9.5c16.9-6.3,31.4-15.3,43.2-27
	c12.2-11.9,21.6-25.9,28.2-42.1c4.7-11.1,7.7-22.9,9.2-35.6H293.9L293.9,242.7z"/>
</svg>
