<?xml version="1.0" encoding="utf-8"?>
<!-- Generator: Adobe Illustrator 21.0.2, SVG Export Plug-In . SVG Version: 6.00 Build 0)  -->
<svg version="1.1" id="Layer_1" xmlns="http://www.w3.org/2000/svg" xmlns:xlink="http://www.w3.org/1999/xlink" x="0px" y="0px"
	 viewBox="0 0 566.9 566.9" style="enable-background:new 0 0 566.9 566.9;" xml:space="preserve">
<style type="text/css">
	.st0{fill:#4395D2;}
</style>
<g>
	<path class="st0" d="M358.9,432.5c1.7,1.9,2.6,4.3,2.6,6.6c0,1.9,0.5,47.9-40.6,67.8c-11.6,5.4-25.7,6.8-38.7,7.1l-33.1,40.9
		c19.1,0.2,44.6,0,53.8-1.2c17-2.1,34-8,49.1-17c10.6-6.1,20.3-14.2,29-23.1c10.6-11.3,18.9-23.1,22.9-33.3c1.9-5,3.8-10.6,5.2-16.8
		c3.8-16.1,5.4-42.3,5.7-63.5h-84.1L358.9,432.5z"/>
	<path class="st0" d="M353.8,343.7L335.3,377l126.4-0.2c41.1,0,62.1-14.4,78.4-32.8L353.8,343.7z"/>
	<path class="st0" d="M222.4,304.5c5.9-0.5,11.1,3.8,11.6,9.7c0.2,2.6,6.4,62.6,61.9,62.6h6.8l34.7-59h77.9V139
		c0-56.2-27.6-84.6-28.8-85.7l-0.9-0.9c-13.5-17-31.9-29.3-52.9-35.9C315.5,11,299.4,11,281,11h-89.5c11.1,11.6,16.8,27.2,16.8,46.5
		c0,5.9-4.7,10.6-10.6,10.6S187,63.4,187,57.5c0-14.6-4.3-26-12.5-33.5c-15.4-14.2-40.6-12.8-40.9-12.8s-0.5,0-0.5,0H46.2
		c-0.7,0-7.3-0.2-11.3,3.8c-3.1,2.8-4.5,7.6-4.5,14.2v226.5c0,1.2-2.4,49.8,30.2,82.4c0.5,0.5,37.8,38.7,83.4,38.7h96.6
		c-18.7-18.2-26.7-43.7-28.1-60.7C212,310.4,216.5,305.2,222.4,304.5z M342.9,229.9l-68-31.2C298,153.6,356.8,181.5,342.9,229.9z"/>
</g>
</svg>
