<svg width="238" height="68" viewBox="0 0 238 68" fill="none" xmlns="http://www.w3.org/2000/svg">
<path d="M41.2593 52.7534C41.47 52.9995 41.5753 53.2807 41.5753 53.5619C41.5753 53.808 41.6456 59.5024 36.5538 61.9629C35.114 62.6308 33.3582 62.8065 31.778 62.8417L27.7046 67.9034C30.0573 67.9385 33.2178 67.9034 34.3766 67.7628C36.4835 67.5167 38.5905 66.7785 40.4516 65.6537C41.7509 64.8804 42.9448 63.8962 44.0334 62.8065C45.3327 61.4005 46.3862 59.9593 46.8778 58.6939C47.1236 58.0963 47.3343 57.3933 47.5099 56.62C47.9664 54.6164 48.1771 51.3826 48.2122 48.7463H37.7828L41.2593 52.7534Z" fill="#3A8DDE"/>
<path d="M40.6271 41.7513L38.3446 45.8639L53.9711 45.8287C59.0629 45.8287 61.6615 44.0361 63.6631 41.7513H40.6271Z" fill="#3A8DDE"/>
<path d="M24.3685 36.9004C25.1059 36.8301 25.738 37.3574 25.8082 38.0955C25.8434 38.4119 26.5808 45.8287 33.4635 45.8287H34.3063L38.5904 38.5173H48.2121V16.4428C48.2121 9.48295 44.8059 5.96789 44.6654 5.82729L44.5601 5.72184C42.9096 3.6128 40.6271 2.10133 38.0285 1.29286C35.8865 0.625 33.92 0.625 31.6375 0.625H20.576C21.9455 2.06617 22.6478 3.99946 22.6478 6.3897C22.6478 7.12786 22.0509 7.69027 21.3485 7.69027C20.6462 7.69027 20.0493 7.09271 20.0493 6.3897C20.0493 4.56187 19.5225 3.19099 18.5042 2.24193C16.6079 0.484398 13.4826 0.660151 13.4475 0.660151C13.4124 0.660151 13.3773 0.660151 13.3773 0.660151H2.59672C2.52648 0.660151 1.6837 0.625 1.19208 1.11711C0.80581 1.46861 0.630232 2.06617 0.630232 2.87464V30.8897C0.630232 31.0303 0.349305 37.041 4.3525 41.0833C4.42274 41.1536 9.0229 45.8638 14.6414 45.8638H26.5808C24.2632 43.6142 23.2799 40.4506 23.1043 38.3416C23.1043 37.6386 23.6662 37.0059 24.3685 36.9004ZM39.2576 27.691L30.8649 23.8244C33.7093 18.2355 40.9783 21.6802 39.2576 27.691Z" fill="#3A8DDE"/>
<path d="M75.0367 45.4771C74.826 45.2662 74.7557 45.0202 74.7557 44.7038V13.2792C74.7557 12.9277 74.826 12.6465 75.0367 12.4356C75.2474 12.2247 75.4581 12.1192 75.8092 12.1192H86.6249C91.4357 12.1192 94.9473 13.2089 97.0894 15.3531C99.2314 17.5324 100.32 20.8014 100.39 25.125C100.425 26.074 100.46 27.3043 100.46 28.8509C100.46 30.4327 100.425 31.6981 100.39 32.6472C100.32 35.6701 99.8284 38.1658 98.9154 40.064C98.0024 41.9621 96.5626 43.4033 94.6313 44.3172C92.6648 45.2662 90.1013 45.7232 86.8707 45.7232H75.8092C75.4932 45.7935 75.2474 45.688 75.0367 45.4771ZM86.66 41.7863C88.9074 41.7863 90.6983 41.47 91.9976 40.8373C93.2969 40.2397 94.2801 39.2203 94.8771 37.9198C95.474 36.584 95.7901 34.7914 95.8603 32.5066C95.9306 30.5733 95.9305 29.3782 95.9305 28.9212C95.9305 28.394 95.8954 27.234 95.8603 25.371C95.7901 22.1723 95.0527 19.8172 93.5778 18.3409C92.1029 16.8646 89.7151 16.0912 86.4142 16.0912H79.2506V41.8215L86.66 41.7863Z" fill="#1C3E55"/>
<path d="M107.133 42.876C105.236 40.9076 104.218 38.2361 104.042 34.8265L103.972 33.2448L104.042 31.7333C104.218 28.394 105.271 25.7577 107.133 23.7541C108.994 21.7505 111.557 20.7663 114.682 20.7663C118.054 20.7663 120.687 21.856 122.548 24.0001C124.41 26.1795 125.358 29.097 125.358 32.7878V33.6314C125.358 33.9478 125.287 34.1938 125.077 34.4047C124.866 34.6156 124.62 34.6859 124.304 34.6859H108.256V35.1077C108.327 37.1113 108.959 38.8337 110.082 40.2397C111.206 41.6809 112.751 42.3839 114.612 42.3839C116.087 42.3839 117.246 42.1027 118.159 41.5403C119.072 40.9427 119.774 40.3803 120.231 39.7476C120.512 39.361 120.722 39.1501 120.863 39.0798C121.003 39.0095 121.284 38.9743 121.635 38.9743H123.672C123.953 38.9743 124.199 39.0446 124.41 39.2204C124.62 39.361 124.69 39.5719 124.69 39.8179C124.69 40.4858 124.269 41.2942 123.426 42.2785C122.584 43.2275 121.425 44.0711 119.88 44.7742C118.37 45.4772 116.614 45.8287 114.612 45.8287C111.522 45.8287 108.994 44.8445 107.133 42.876ZM121.144 31.5927V31.4521C121.144 29.2727 120.547 27.5504 119.388 26.1795C118.229 24.8086 116.649 24.1408 114.647 24.1408C112.646 24.1408 111.066 24.8086 109.907 26.1795C108.783 27.5504 108.186 29.3079 108.186 31.4521V31.5927H121.144Z" fill="#1C3E55"/>
<path d="M133.083 44.7038C131.608 43.9657 130.59 43.1221 129.888 42.2081C129.185 41.2942 128.834 40.5561 128.834 39.9937C128.834 39.6773 128.939 39.4313 129.15 39.2555C129.361 39.0797 129.572 39.0094 129.852 39.0094H131.819C131.995 39.0094 132.135 39.0446 132.24 39.0797C132.346 39.15 132.486 39.2906 132.662 39.5016C133.364 40.3803 134.101 41.0833 134.979 41.6106C135.927 42.173 136.63 42.5245 138.35 42.5245C140.001 42.5245 140.984 42.2081 141.967 41.5754C142.951 40.9779 143.477 40.064 143.477 38.904C143.477 38.1307 143.267 37.498 142.845 37.0762C142.424 36.6192 141.722 36.1974 140.668 35.8107C139.685 35.4241 138.175 35.0374 136.208 34.6156C133.54 34.0181 131.608 33.1744 130.52 32.0848C129.396 30.96 128.869 29.5539 128.869 27.7613C128.869 26.6364 129.22 25.5116 129.888 24.4571C130.555 23.4026 131.573 22.5238 132.908 21.856C134.242 21.1881 135.857 20.8717 137.683 20.8717C139.65 20.8717 141.265 21.1881 142.67 21.8208C144.039 22.4535 145.058 23.2268 145.76 24.1056C146.462 24.9844 146.813 25.6874 146.813 26.2849C146.813 26.5661 146.743 26.777 146.532 26.9879C146.322 27.1637 146.111 27.2691 145.795 27.2691H144.039C143.618 27.2691 143.407 27.0934 143.091 26.777C142.529 26.1443 142.143 25.6874 141.792 25.4062C141.37 25.0898 140.914 24.8086 140.247 24.5625C139.474 24.3165 138.737 24.211 137.718 24.211C136.208 24.211 135.05 24.5274 134.242 25.1601C133.434 25.7928 133.048 26.6364 133.048 27.6558C133.048 28.2885 133.224 28.8509 133.54 29.3079C133.856 29.7297 134.523 30.1866 135.506 30.5733C136.454 30.96 137.859 31.3466 139.755 31.7333C142.67 32.3308 144.777 33.2096 145.971 34.3696C147.2 35.4944 147.797 36.9707 147.797 38.7985C147.797 40.0991 147.41 41.3294 146.673 42.4191C145.9 43.5087 144.777 44.3523 143.302 44.9499C141.827 45.5475 140.036 45.9341 137.964 45.899C135.682 45.7935 134.558 45.442 133.083 44.7038Z" fill="#1C3E55"/>
<path d="M151.624 45.5474C151.414 45.3365 151.308 45.0905 151.308 44.739V13.244C151.308 12.8925 151.414 12.6113 151.624 12.4356C151.835 12.2247 152.081 12.1544 152.432 12.1544H154.539C154.855 12.1544 155.136 12.2598 155.347 12.4707C155.557 12.6816 155.663 12.9277 155.663 13.2792V29.3781L164.301 22.3129C164.793 21.9614 165.109 21.7153 165.319 21.645C165.53 21.5747 165.811 21.5044 166.268 21.5044H168.691C168.971 21.5044 169.217 21.5747 169.393 21.7505C169.568 21.9262 169.639 22.1723 169.639 22.5238C169.639 22.805 169.463 23.1213 169.112 23.4728L158.823 31.8387L171.43 43.9305C171.781 44.282 171.956 44.5984 171.956 44.8796C171.956 45.1608 171.886 45.4068 171.711 45.6177C171.535 45.8286 171.289 45.8989 171.008 45.8989H168.62C168.129 45.8989 167.778 45.8286 167.567 45.7583C167.356 45.688 167.04 45.442 166.654 45.0905L155.663 34.6507V44.7741C155.663 45.0905 155.557 45.3717 155.347 45.5826C155.136 45.7935 154.89 45.8989 154.539 45.8989H152.432C152.081 45.8638 151.8 45.7583 151.624 45.5474Z" fill="#1C3E55"/>
<path d="M218.695 42.9815C216.869 41.0482 215.851 38.5174 215.746 35.3187L215.675 33.3151L215.746 31.3115C215.851 28.1128 216.869 25.582 218.73 23.6487C220.591 21.7154 223.19 20.8015 226.526 20.8015C229.862 20.8015 232.461 21.7505 234.322 23.6487C236.183 25.582 237.166 28.1128 237.307 31.3115C237.377 31.9794 237.377 32.6472 237.377 33.3151C237.377 33.9478 237.342 34.6157 237.307 35.3187C237.201 38.5174 236.183 41.0482 234.357 42.9815C232.531 44.9148 229.897 45.8287 226.491 45.8287C223.085 45.8639 220.521 44.9148 218.695 42.9815ZM231.232 40.521C232.39 39.2555 233.022 37.498 233.093 35.1078C233.128 34.7914 233.163 34.1939 233.163 33.3502C233.163 32.4715 233.128 31.8739 233.093 31.5927C233.022 29.2376 232.355 27.4449 231.232 26.1795C230.073 24.9141 228.528 24.3165 226.526 24.3165C224.524 24.3165 222.979 24.9141 221.821 26.1795C220.662 27.4449 220.03 29.2025 219.959 31.5927L219.889 33.3502L219.959 35.1078C220.03 37.4629 220.697 39.2555 221.821 40.521C222.979 41.7864 224.524 42.3839 226.526 42.3839C228.528 42.3839 230.108 41.7512 231.232 40.521Z" fill="#1C3E55"/>
<path d="M213.533 20.942C212.761 20.942 211.988 20.9069 211.11 20.9069C207.95 20.9069 206.018 21.9965 204.438 23.4377V21.9262C204.438 21.9262 204.473 21.4693 203.982 21.4693H200.786C200.786 21.4693 200.365 21.4341 200.365 21.9262V45.3717C200.365 45.3717 200.33 45.8286 200.821 45.8286H201.945H204.052C204.052 45.8286 204.473 45.8638 204.473 45.3717V31.452C204.544 29.0969 205.246 27.1988 206.475 26.0388C207.774 24.8086 208.968 24.7383 211.18 24.7383C212.093 24.7383 212.831 24.7383 213.603 24.7383C213.955 24.7383 213.955 24.4219 213.955 24.4219V21.2232C213.884 21.2584 213.884 20.942 213.533 20.942Z" fill="#1C3E55"/>
<path d="M196.643 31.452C196.537 28.2533 195.519 25.7225 193.658 23.7892C191.797 21.8559 189.198 20.942 185.862 20.942C182.667 20.942 180.77 22.2426 179.19 23.7189V21.9262C179.19 21.9262 179.225 21.4693 178.734 21.4693H175.538C175.538 21.4693 175.117 21.4341 175.117 21.9262V53.9133C175.117 53.9133 175.082 54.3702 175.573 54.3702H176.697H178.804C178.804 54.3702 179.225 54.4054 179.225 53.9133V43.2626C180.7 44.739 182.456 45.9341 185.897 45.9341C189.268 45.9341 191.902 44.985 193.763 43.0869C195.589 41.1536 196.572 38.6228 196.713 35.4241C196.783 34.7562 196.783 34.0883 196.783 33.4205C196.748 32.7878 196.713 32.1199 196.643 31.452ZM192.429 35.178C192.358 37.5331 191.691 39.3258 190.568 40.5912C189.409 41.8566 187.864 42.4542 185.862 42.4542C183.86 42.4542 182.315 41.8566 181.157 40.5912C179.998 39.3258 179.366 37.5683 179.295 35.178L179.225 33.4205L179.295 31.6629C179.366 29.3079 180.033 27.5152 181.157 26.2498C182.315 24.9843 183.86 24.3868 185.862 24.3868C187.864 24.3868 189.409 24.9843 190.568 26.2498C191.726 27.5152 192.358 29.2727 192.429 31.6629C192.464 31.9793 192.499 32.5769 192.499 33.4205C192.464 34.2992 192.429 34.8968 192.429 35.178Z" fill="#1C3E55"/>
</svg>
