<svg width="24" height="25" viewBox="0 0 24 25" fill="none" xmlns="http://www.w3.org/2000/svg">
    <path d="M9.04004 17.318C13.3893 17.318 16.915 13.7922 16.915 9.44299C16.915 5.09375 13.3893 1.56799 9.04004 1.56799C4.6908 1.56799 1.16504 5.09375 1.16504 9.44299C1.16504 13.7922 4.6908 17.318 9.04004 17.318Z" stroke="#3A8DDE" stroke-width="1.5" stroke-miterlimit="10" stroke-linecap="round" stroke-linejoin="round"/>
    <path d="M3.41504 9.44299C3.41504 6.36799 5.96504 3.81799 9.04004 3.81799" stroke="#3A8DDE" stroke-width="1.5" stroke-miterlimit="10" stroke-linecap="round" stroke-linejoin="round"/>
    <path d="M14.59 14.993L16.315 16.718" stroke="#3A8DDE" stroke-width="1.5" stroke-miterlimit="10" stroke-linecap="round" stroke-linejoin="round"/>
    <path d="M16.315 18.293C15.865 17.843 15.865 17.168 16.315 16.718C16.765 16.268 17.44 16.268 17.89 16.718L22.915 21.743L21.34 23.318L16.315 18.293Z" stroke="#3A8DDE" stroke-width="1.5" stroke-miterlimit="10" stroke-linecap="round" stroke-linejoin="round"/>
</svg>
