<svg version="1.1" id="Layer_1" xmlns="http://www.w3.org/2000/svg" xmlns:xlink="http://www.w3.org/1999/xlink" x="0px" y="0px"viewBox="0 0 600 600" style="enable-background:new 0 0 600 600;" xml:space="preserve"><style type="text/css">.st0{fill:%233D88F3;}</style><path class="st0" d="M430.3,288.6l-80.8-80.8c-6.9-6.9-17.9-6.9-24.8,0c-6.9,6.9-6.9,17.9,0,24.8l52.5,52.5l-195.9,0c-9.7,0-17.6,7.9-17.6,17.6c0,4.8,1.7,9.3,4.8,12.4c3.1,3.1,7.6,4.8,12.4,4.8h192.5l-49,49c-6.9,6.9-6.9,17.9,0,24.8c6.9,6.9,17.9,6.9,24.8,0l80.8-80.8C437.2,306.5,437.2,295.5,430.3,288.6z"/><g><path class="st0" d="M299.5,34.4c-147.2,0-266.5,119.3-266.5,266.5s119.3,266.5,266.5,266.5S566,448,566,300.8S446.7,34.4,299.5,34.4z M471.2,472.4c-45.8,45.8-106.7,71.1-171.6,71.1s-125.8-25.2-171.6-71.1S56.9,365.7,56.9,300.8S82.1,175,127.9,129.2s106.7-71.1,171.6-71.1s125.8,25.2,171.6,71.1c45.8,45.8,71.1,106.7,71.1,171.6S517,426.6,471.2,472.4z"/></g></svg>