<?xml version="1.0" encoding="utf-8"?>
<!-- Generator: Adobe Illustrator 22.1.0, SVG Export Plug-In . SVG Version: 6.00 Build 0)  -->
<svg version="1.1" id="Layer_1" xmlns="http://www.w3.org/2000/svg" xmlns:xlink="http://www.w3.org/1999/xlink" x="0px" y="0px"
	 viewBox="0 0 600 600" style="enable-background:new 0 0 600 600;" xml:space="preserve">
<style type="text/css">
	.st0{fill:#3D88F3;}
</style>
<path class="st0" d="M476.5,13h-355c-29.1,0-53,23.8-53,53v468.2c0,29.1,23.8,53,53,53h355.6c29.1,0,53-23.8,53-53V66
	C529.5,36.2,505.6,13,476.5,13z M503,533.5c0,14.6-11.9,26.5-26.5,26.5h-355C107,560,95,548.1,95,533.5V66
	c0-14.6,11.9-26.5,26.5-26.5h221.2v237.1l42.4-66.9l43,66.9V39.5h48.3c14.6,0,26.5,11.9,26.5,26.5V533.5z"/>
</svg>
