<svg version="1.1" id="Layer_1" xmlns="http://www.w3.org/2000/svg" xmlns:xlink="http://www.w3.org/1999/xlink" x="0px" y="0px" viewBox="0 0 96 99" style="enable-background:new 0 0 96 99;" xml:space="preserve"><style type="text/css">.st0{fill:#FFFFFF;}</style><g><path class="st0" d="M48,4.8c-23.4,0-42.4,19-42.4,42.4c0,5.3,1,10.5,2.9,15.4c1.5,4,3.7,7.7,6.4,11.1L8.7,88.4c-0.3,0.7-0.2,1.5,0.3,2c0.4,0.5,1,0.8,1.6,0.8c0.1,0,0.2,0,0.3,0l22.9-4c4.6,1.6,9.4,2.5,14.2,2.5c23.4,0,42.4-19,42.4-42.4S71.4,4.8,48,4.8z M48,85.6c-4.5,0-9-0.8-13.3-2.4c-0.3-0.1-0.7-0.2-1-0.1l-19.8,3.5l5.3-12.4c0.3-0.7,0.2-1.5-0.3-2.1c-2.8-3.3-5-7-6.5-10.9c-1.7-4.5-2.6-9.2-2.6-14C9.6,26,26.8,8.8,48,8.8S86.4,26,86.4,47.2S69.2,85.6,48,85.6z"/><circle class="st0" cx="32.8" cy="48" r="4.6"/><circle class="st0" cx="48" cy="48" r="4.6"/><circle class="st0" cx="63.2" cy="48" r="4.6"/></g></svg>